<svg width="389" height="21" viewBox="0 0 389 21" fill="none" xmlns="http://www.w3.org/2000/svg">
<path fill-rule="evenodd" clip-rule="evenodd" d="M457.771 363.807L255.966 14.4509C244.811 -4.81695 216.924 -4.81695 205.769 14.4509L3.96362 363.807C-7.19142 383.074 6.49886 407.413 28.809 407.413H432.419C455.236 407.413 468.926 383.074 457.771 363.807ZM224.529 121.443C236.698 118.401 248.868 124.485 254.445 135.64C256.473 139.697 256.98 144.26 256.473 148.316C255.459 160.993 254.952 173.669 254.445 186.852C253.938 196.739 253.304 206.754 252.67 216.768C252.037 226.782 251.403 236.796 250.896 246.684C250.637 249.789 250.51 252.895 250.381 256.068C250.257 259.112 250.13 262.217 249.882 265.444C249.375 276.092 241.262 284.205 230.614 284.205C220.473 284.205 211.853 276.092 211.346 265.951C210.585 250.486 209.698 235.022 208.811 219.557V219.556C207.923 204.091 207.036 188.627 206.276 173.162C206.022 169.105 205.769 164.922 205.515 160.739C205.261 156.556 205.008 152.373 204.754 148.316C204.754 136.147 212.867 124.485 224.529 121.443ZM205.769 327.808C205.769 342.005 216.924 353.667 231.121 353.667C244.811 353.667 256.473 342.005 256.98 328.315C256.98 313.611 245.825 301.949 231.628 301.949C217.431 301.949 205.769 313.611 205.769 327.808Z" fill="white"/>
</svg>
